<?xml version="1.0" encoding="UTF-8" standalone="no"?>
<!DOCTYPE svg PUBLIC "-//W3C//DTD SVG 1.1//EN"
 "http://www.w3.org/Graphics/SVG/1.1/DTD/svg11.dtd">
<!-- Generated by graphviz version 12.2.1 (20241206.2353)
 -->
<!-- Pages: 1 -->
<svg width="1320pt" height="116pt"
 viewBox="0.00 0.00 1320.13 116.00" xmlns="http://www.w3.org/2000/svg" xmlns:xlink="http://www.w3.org/1999/xlink">
<g id="graph0" class="graph" transform="scale(1 1) rotate(0) translate(4 112)">
<polygon fill="white" stroke="none" points="-4,4 -4,-112 1316.13,-112 1316.13,4 -4,4"/>
<!-- train_linear -->
<g id="node1" class="node">
<title>train_linear</title>
<ellipse fill="none" stroke="black" cx="138.68" cy="-90" rx="53.4" ry="18"/>
<text text-anchor="middle" x="138.68" y="-84.95" font-family="Times New Roman,serif" font-size="14.00">train_linear</text>
</g>
<!-- validate_linear -->
<g id="node2" class="node">
<title>validate_linear</title>
<ellipse fill="none" stroke="black" cx="65.68" cy="-18" rx="65.68" ry="18"/>
<text text-anchor="middle" x="65.68" y="-12.95" font-family="Times New Roman,serif" font-size="14.00">validate_linear</text>
</g>
<!-- train_linear&#45;&gt;validate_linear -->
<g id="edge1" class="edge">
<title>train_linear&#45;&gt;validate_linear</title>
<path fill="none" stroke="black" d="M121.75,-72.76C112.67,-64.06 101.29,-53.15 91.16,-43.43"/>
<polygon fill="black" stroke="black" points="93.76,-41.08 84.12,-36.68 88.92,-46.13 93.76,-41.08"/>
</g>
<!-- fullrun_linear -->
<g id="node3" class="node">
<title>fullrun_linear</title>
<ellipse fill="none" stroke="black" cx="210.68" cy="-18" rx="61.59" ry="18"/>
<text text-anchor="middle" x="210.68" y="-12.95" font-family="Times New Roman,serif" font-size="14.00">fullrun_linear</text>
</g>
<!-- train_linear&#45;&gt;fullrun_linear -->
<g id="edge2" class="edge">
<title>train_linear&#45;&gt;fullrun_linear</title>
<path fill="none" stroke="black" d="M155.38,-72.76C164.34,-64.06 175.56,-53.15 185.55,-43.43"/>
<polygon fill="black" stroke="black" points="187.76,-46.17 192.49,-36.69 182.88,-41.15 187.76,-46.17"/>
</g>
<!-- train_tree -->
<g id="node4" class="node">
<title>train_tree</title>
<ellipse fill="none" stroke="black" cx="413.68" cy="-90" rx="46.23" ry="18"/>
<text text-anchor="middle" x="413.68" y="-84.95" font-family="Times New Roman,serif" font-size="14.00">train_tree</text>
</g>
<!-- validate_tree -->
<g id="node5" class="node">
<title>validate_tree</title>
<ellipse fill="none" stroke="black" cx="348.68" cy="-18" rx="58.52" ry="18"/>
<text text-anchor="middle" x="348.68" y="-12.95" font-family="Times New Roman,serif" font-size="14.00">validate_tree</text>
</g>
<!-- train_tree&#45;&gt;validate_tree -->
<g id="edge3" class="edge">
<title>train_tree&#45;&gt;validate_tree</title>
<path fill="none" stroke="black" d="M398.61,-72.76C390.68,-64.23 380.79,-53.58 371.91,-44.02"/>
<polygon fill="black" stroke="black" points="374.53,-41.69 365.16,-36.74 369.4,-46.45 374.53,-41.69"/>
</g>
<!-- fullrun_tree -->
<g id="node6" class="node">
<title>fullrun_tree</title>
<ellipse fill="none" stroke="black" cx="479.68" cy="-18" rx="54.42" ry="18"/>
<text text-anchor="middle" x="479.68" y="-12.95" font-family="Times New Roman,serif" font-size="14.00">fullrun_tree</text>
</g>
<!-- train_tree&#45;&gt;fullrun_tree -->
<g id="edge4" class="edge">
<title>train_tree&#45;&gt;fullrun_tree</title>
<path fill="none" stroke="black" d="M428.99,-72.76C437.12,-64.14 447.28,-53.36 456.37,-43.73"/>
<polygon fill="black" stroke="black" points="458.65,-46.41 462.96,-36.73 453.55,-41.61 458.65,-46.41"/>
</g>
<!-- train_cat -->
<g id="node7" class="node">
<title>train_cat</title>
<ellipse fill="none" stroke="black" cx="669.68" cy="-90" rx="43.16" ry="18"/>
<text text-anchor="middle" x="669.68" y="-84.95" font-family="Times New Roman,serif" font-size="14.00">train_cat</text>
</g>
<!-- validate_cat -->
<g id="node8" class="node">
<title>validate_cat</title>
<ellipse fill="none" stroke="black" cx="607.68" cy="-18" rx="55.45" ry="18"/>
<text text-anchor="middle" x="607.68" y="-12.95" font-family="Times New Roman,serif" font-size="14.00">validate_cat</text>
</g>
<!-- train_cat&#45;&gt;validate_cat -->
<g id="edge5" class="edge">
<title>train_cat&#45;&gt;validate_cat</title>
<path fill="none" stroke="black" d="M655.3,-72.76C647.74,-64.23 638.31,-53.58 629.84,-44.02"/>
<polygon fill="black" stroke="black" points="632.67,-41.93 623.42,-36.77 627.43,-46.57 632.67,-41.93"/>
</g>
<!-- fullrun_cat -->
<g id="node9" class="node">
<title>fullrun_cat</title>
<ellipse fill="none" stroke="black" cx="732.68" cy="-18" rx="51.35" ry="18"/>
<text text-anchor="middle" x="732.68" y="-12.95" font-family="Times New Roman,serif" font-size="14.00">fullrun_cat</text>
</g>
<!-- train_cat&#45;&gt;fullrun_cat -->
<g id="edge6" class="edge">
<title>train_cat&#45;&gt;fullrun_cat</title>
<path fill="none" stroke="black" d="M684.29,-72.76C691.97,-64.23 701.56,-53.58 710.16,-44.02"/>
<polygon fill="black" stroke="black" points="712.61,-46.53 716.7,-36.76 707.41,-41.85 712.61,-46.53"/>
</g>
<!-- train_xgb -->
<g id="node10" class="node">
<title>train_xgb</title>
<ellipse fill="none" stroke="black" cx="925.68" cy="-90" rx="46.23" ry="18"/>
<text text-anchor="middle" x="925.68" y="-84.95" font-family="Times New Roman,serif" font-size="14.00">train_xgb</text>
</g>
<!-- validate_xgb -->
<g id="node11" class="node">
<title>validate_xgb</title>
<ellipse fill="none" stroke="black" cx="860.68" cy="-18" rx="58.52" ry="18"/>
<text text-anchor="middle" x="860.68" y="-12.95" font-family="Times New Roman,serif" font-size="14.00">validate_xgb</text>
</g>
<!-- train_xgb&#45;&gt;validate_xgb -->
<g id="edge7" class="edge">
<title>train_xgb&#45;&gt;validate_xgb</title>
<path fill="none" stroke="black" d="M910.61,-72.76C902.68,-64.23 892.79,-53.58 883.91,-44.02"/>
<polygon fill="black" stroke="black" points="886.53,-41.69 877.16,-36.74 881.4,-46.45 886.53,-41.69"/>
</g>
<!-- fullrun_xgb -->
<g id="node12" class="node">
<title>fullrun_xgb</title>
<ellipse fill="none" stroke="black" cx="991.68" cy="-18" rx="54.42" ry="18"/>
<text text-anchor="middle" x="991.68" y="-12.95" font-family="Times New Roman,serif" font-size="14.00">fullrun_xgb</text>
</g>
<!-- train_xgb&#45;&gt;fullrun_xgb -->
<g id="edge8" class="edge">
<title>train_xgb&#45;&gt;fullrun_xgb</title>
<path fill="none" stroke="black" d="M940.99,-72.76C949.12,-64.14 959.28,-53.36 968.37,-43.73"/>
<polygon fill="black" stroke="black" points="970.65,-46.41 974.96,-36.73 965.55,-41.61 970.65,-46.41"/>
</g>
<!-- train_mlp -->
<g id="node13" class="node">
<title>train_mlp</title>
<ellipse fill="none" stroke="black" cx="1189.68" cy="-90" rx="47.26" ry="18"/>
<text text-anchor="middle" x="1189.68" y="-84.95" font-family="Times New Roman,serif" font-size="14.00">train_mlp</text>
</g>
<!-- validate_mlp -->
<g id="node14" class="node">
<title>validate_mlp</title>
<ellipse fill="none" stroke="black" cx="1123.68" cy="-18" rx="59.54" ry="18"/>
<text text-anchor="middle" x="1123.68" y="-12.95" font-family="Times New Roman,serif" font-size="14.00">validate_mlp</text>
</g>
<!-- train_mlp&#45;&gt;validate_mlp -->
<g id="edge9" class="edge">
<title>train_mlp&#45;&gt;validate_mlp</title>
<path fill="none" stroke="black" d="M1174.37,-72.76C1166.25,-64.14 1156.08,-53.36 1147,-43.73"/>
<polygon fill="black" stroke="black" points="1149.81,-41.61 1140.4,-36.73 1144.72,-46.41 1149.81,-41.61"/>
</g>
<!-- fullrun_mlp -->
<g id="node15" class="node">
<title>fullrun_mlp</title>
<ellipse fill="none" stroke="black" cx="1256.68" cy="-18" rx="55.45" ry="18"/>
<text text-anchor="middle" x="1256.68" y="-12.95" font-family="Times New Roman,serif" font-size="14.00">fullrun_mlp</text>
</g>
<!-- train_mlp&#45;&gt;fullrun_mlp -->
<g id="edge10" class="edge">
<title>train_mlp&#45;&gt;fullrun_mlp</title>
<path fill="none" stroke="black" d="M1205.22,-72.76C1213.47,-64.14 1223.79,-53.36 1233.02,-43.73"/>
<polygon fill="black" stroke="black" points="1235.33,-46.37 1239.71,-36.73 1230.27,-41.53 1235.33,-46.37"/>
</g>
</g>
</svg>
